<?xml version="1.0" encoding="UTF-8"?>
<svg width="20px" height="20px" viewBox="0 0 20 20" version="1.1" xmlns="http://www.w3.org/2000/svg" xmlns:xlink="http://www.w3.org/1999/xlink">
    <!-- Generator: Sketch 57.1 (83088) - https://sketch.com -->
    <title>icon_客户端配置管理</title>
    <desc>Created with Sketch.</desc>
    <g id="后台" stroke="none" stroke-width="1" fill="none" fill-rule="evenodd">
        <g transform="translate(-20.000000, -68.000000)" fill="#43484D" id="编组-8">
            <g transform="translate(0.000000, 51.000000)">
                <g id="客户端配置管理" transform="translate(8.000000, 7.000000)">
                    <g id="编组-6" transform="translate(12.000000, 9.000000)">
                        <g id="icon_客户端配置管理" transform="translate(0.000000, 1.000000)">
                            <path d="M16.5,15.042889 L16.5,17 C16.5,18.1045695 15.6045695,19 14.5,19 L5.5,19 C4.3954305,19 3.5,18.1045695 3.5,17 L3.5,15.042889 L16.5,15.042889 Z M10,16 C9.44771525,16 9,16.4477153 9,17 C9,17.5522847 9.44771525,18 10,18 C10.5522847,18 11,17.5522847 11,17 C11,16.4477153 10.5522847,16 10,16 Z M3.5,3 C3.5,1.8954305 4.3954305,1 5.5,1 L14.5,1 C15.6045695,1 16.5,1.8954305 16.5,3 L16.5,13.542889 L3.5,13.542889 L3.5,3 Z" id="形状结合"></path>
                        </g>
                    </g>
                </g>
            </g>
        </g>
    </g>
</svg>