<?xml version="1.0" encoding="UTF-8"?>
<svg width="20px" height="20px" viewBox="0 0 20 20" version="1.1" xmlns="http://www.w3.org/2000/svg" xmlns:xlink="http://www.w3.org/1999/xlink">
    <!-- Generator: Sketch 57.1 (83088) - https://sketch.com -->
    <title>编组 3</title>
    <desc>Created with Sketch.</desc>
    <g id="后台" stroke="none" stroke-width="1" fill="none" fill-rule="evenodd">
        <g transform="translate(-20.000000, -233.000000)" fill="#43484D" id="编组-8">
            <g transform="translate(0.000000, 51.000000)">
                <g id="客户端配置管理备份-9" transform="translate(8.000000, 172.000000)">
                    <g id="编组-6" transform="translate(12.000000, 9.000000)">
                        <g id="编组-3" transform="translate(0.000000, 1.000000)">
                            <path d="M16.5833333,2 C16.813452,2 17,2.18654802 17,2.41666667 L17,14.8050783 C17,14.9255551 16.9478527,15.0401344 16.8570073,15.1192657 L13.6674731,17.8975206 C13.591612,17.9635998 13.4944042,18 13.3937992,18 L3.41666667,18 C3.18654802,18 3,17.813452 3,17.5833333 L3,2.41666667 C3,2.18654802 3.18654802,2 3.41666667,2 L16.5833333,2 Z M12.4201389,11.2019563 L5.29513889,11.2019563 C5.00749058,11.2019563 4.77430556,11.4351414 4.77430556,11.7227897 C4.77430556,12.010438 5.00749058,12.243623 5.29513889,12.243623 L5.29513889,12.243623 L12.4201389,12.243623 C12.7077872,12.243623 12.9409722,12.010438 12.9409722,11.7227897 C12.9409722,11.4351414 12.7077872,11.2019563 12.4201389,11.2019563 L12.4201389,11.2019563 Z M14.8263889,8.07695633 L5.29513889,8.07695633 C5.00749058,8.07695633 4.77430556,8.31014135 4.77430556,8.59778966 C4.77430556,8.85347704 4.95855051,9.06613171 5.20151844,9.11023167 L5.29513889,9.11862299 L14.8263889,9.11862299 C15.1140372,9.11862299 15.3472222,8.88543797 15.3472222,8.59778966 C15.3472222,8.31014135 15.1140372,8.07695633 14.8263889,8.07695633 Z M14.8263889,4.95195633 L5.29513889,4.95195633 C5.00749058,4.95195633 4.77430556,5.18514135 4.77430556,5.47278966 C4.77430556,5.72847704 4.95855051,5.94113171 5.20151844,5.98523167 L5.29513889,5.99362299 L14.8263889,5.99362299 C15.1140372,5.99362299 15.3472222,5.76043797 15.3472222,5.47278966 C15.3472222,5.18514135 15.1140372,4.95195633 14.8263889,4.95195633 Z" id="形状结合"></path>
                        </g>
                    </g>
                </g>
            </g>
        </g>
    </g>
</svg>