<?xml version="1.0" encoding="UTF-8"?>
<svg width="18px" height="18px" viewBox="0 0 18 18" version="1.1" xmlns="http://www.w3.org/2000/svg" xmlns:xlink="http://www.w3.org/1999/xlink">
    <!-- Generator: Sketch 57.1 (83088) - https://sketch.com -->
    <title>全屏</title>
    <desc>Created with Sketch.</desc>
    <g id="后台" stroke="none" stroke-width="1" fill="none" fill-rule="evenodd" opacity="0.87">
        <g id="后台列表样式" transform="translate(-1256.000000, -17.000000)" fill="#FFFFFF" fill-rule="nonzero">
            <g id="Group">
                <g id="全屏" transform="translate(1256.000000, 17.000000)">
                    <path d="M3.09440287,14.167293 L3.09440287,3.83273124 L14.9035453,3.83273124 L14.9035453,14.167293 L3.09440287,14.167293 Z M4.57054669,12.6906281 L13.4274137,12.6906281 L13.4274137,5.30937983 L4.57054669,5.30937983 L4.57054669,12.6906281 Z M17.855837,17.8579131 L13.4487647,17.8579131 L13.4487647,16.3817652 L16.3817652,16.3817652 L16.3817652,13.4310366 L17.857909,13.4310366 L17.857909,17.8579131 L17.8558248,17.8579131 L17.855837,17.8579131 Z M4.60024266,17.857909 L0.142103011,17.857909 L0.142103011,13.4352051 L1.61824683,13.4352051 L1.61824683,16.3817611 L4.60024266,16.3817611 L4.60024266,17.857909 L4.60024266,17.857909 Z M17.855837,4.59657493 L16.3796932,4.59657493 L16.3796932,1.61822648 L13.4487687,1.61822648 L13.4487687,0.142082658 L17.8579172,0.142082658 L17.8579172,4.59657493 L17.855833,4.59657493 L17.855837,4.59657493 Z M1.61825091,4.59659121 L0.142107082,4.59659121 L0.142107082,0.142098941 L4.60024673,0.142098941 L4.60024673,1.61824276 L1.61825498,1.61824276 L1.61825498,4.59659121 L1.61825091,4.59659121 Z" id="形状"></path>
                </g>
            </g>
        </g>
    </g>
</svg>